# xmcd
#
# Track frame offsets:
#	150
#	13670
#	29492
#	47261
#	58543
#	76846
#	87476
#	103726
#	119519
#	138581
#	152668
#	170503
#
# Disc length: 2561 seconds
#
# Revision: 0
# Processed by: cddbd v1.5.2PL0 Copyright (c) Steve Scherf et al.
# Submitted via: EasyCDDAExtractor 10.0.1.1
#
DISCID=9609ff0c
DTITLE=Jeanie Greenwell and Don Gowan - I Long To Be
DYEAR=2006
DGENRE=Country
TTITLE0=Make Sense of it All
TTITLE1=River Flows
TTITLE2=Enough is Enough
TTITLE3=Change My Point of View
TTITLE4=I Long To Be
TTITLE5=Dorkus Malorkus
TTITLE6=Such A Simple Night
TTITLE7=Time Can Heal
TTITLE8=Not By Yourself
TTITLE9=For Everyone
TTITLE10=Stars and The Moon
TTITLE11=There's Been Changes
EXTD=
EXTT0=
EXTT1=
EXTT2=
EXTT3=
EXTT4=
EXTT5=
EXTT6=
EXTT7=
EXTT8=
EXTT9=
EXTT10=
EXTT11=
PLAYORDER=
